<svg xmlns="http://www.w3.org/2000/svg" width="215" height="48" viewBox="0 0 215 48" fill="none">
	<path fill="#0F172A" d="M18 8h16l7 20h-5.8l-1.8-5.3H18.6L16.8 28H11l7-20Zm9.2 12.2-3.2-9.1-3.2 9.1h6.4Zm20.3-1.3c-.1-1.3-.6-2.3-1.4-3s-1.8-1.1-3-1.1c-1.6 0-2.8.6-3.7 1.8-.9 1.2-1.3 2.8-1.3 5s.4 3.8 1.3 5c.9 1.2 2.1 1.8 3.7 1.8 1.2 0 2.2-.4 3-1.1.8-.8 1.3-1.8 1.5-3.2l4.8.2c-.1 1.6-.7 3-1.5 4.1-.9 1.2-2 2-3.3 2.6-1.4.6-2.8.9-4.5.9-2 0-3.7-.5-5.2-1.3-1.5-.9-2.6-2.1-3.4-3.7-.8-1.6-1.2-3.4-1.2-5.5s.4-3.9 1.2-5.5c.8-1.6 1.9-2.8 3.4-3.7 1.5-.9 3.2-1.3 5.2-1.3 1.6 0 3.1.3 4.4.9 1.3.6 2.4 1.5 3.2 2.6.8 1.1 1.4 2.4 1.5 4l-4.8.2Zm10.8-7.2.1 3.2c.5-1.2 1.2-2.1 2.2-2.7 1-.7 2.1-1 3.4-1 1.4 0 2.6.4 3.5 1.1 1 .7 1.7 1.7 2.1 3 .5-1.4 1.2-2.4 2.2-3.1 1-.7 2.3-1.1 3.7-1.1 1.3 0 2.5.3 3.4.9.9.6 1.7 1.4 2.2 2.5.5 1.1.8 2.5.8 4.1V28h-4.6V16.5c0-1.7-.3-3-.8-3.9-.5-.9-1.3-1.3-2.4-1.3-.8 0-1.5.2-2.1.6-.6.4-1 1-1.4 1.8-.3.8-.4 1.7-.4 2.8V28h-4.2V16.5c0-1.1-.1-2.1-.4-2.9-.2-.8-.6-1.4-1.1-1.8-.5-.4-1.1-.6-1.8-.6-.8 0-1.5.2-2.1.6-.6.4-1 1-1.4 1.8-.3.8-.4 1.7-.4 2.8V28h-4.6V10.7h4.2Zm24.9 8.5c0-2.1.4-3.9 1.2-5.4.8-1.6 1.9-2.8 3.4-3.7 1.5-.9 3.2-1.3 5.2-1.3 1.7 0 3.3.4 4.7 1.1 1.4.8 2.5 2 3.3 3.5.8 1.5 1.3 3.4 1.3 5.6v1.2H82.4c.1 1.7.6 3 1.4 3.9.8.9 2 1.4 3.5 1.4.9 0 1.8-.2 2.5-.7.8-.5 1.3-1.2 1.7-2l4.8.3c-.6 1.9-1.7 3.4-3.3 4.5-1.6 1.1-3.4 1.7-5.7 1.7-2 0-3.7-.5-5.2-1.3-1.5-.9-2.6-2.1-3.4-3.7-.8-1.6-1.2-3.4-1.2-5.5Zm14.3-1.9c-.2-1.6-.7-2.8-1.5-3.6-.8-.8-1.8-1.2-2.9-1.2-1.4 0-2.4.4-3.3 1.2-.8.8-1.3 2-1.5 3.5h9.2Zm17.2-9.7c2 0 3.7.4 5.1 1.3 1.5.9 2.7 2.1 3.5 3.8.8 1.6 1.3 3.6 1.3 5.8s-.4 4.2-1.3 5.9c-.8 1.7-2 3-3.5 3.9-1.4.9-3.1 1.3-5.1 1.3-1.8 0-3.4-.4-4.7-1.2-1.3-.8-2.2-1.8-2.8-3.1v11.6h-4.6V10.7h4.2l.1 3.7c.6-1.2 1.5-2.2 2.8-3 1.3-.8 2.8-1.2 4.5-1.2Zm-1 4.1c-1.7 0-3 .6-4 1.8-1 1.2-1.5 2.8-1.5 4.9s.5 3.8 1.5 4.9c1 1.2 2.3 1.8 4 1.8s3-.6 4-1.8c1-1.2 1.5-2.8 1.5-4.9s-.5-3.8-1.5-4.9c-1-1.2-2.3-1.8-4-1.8Z"/>
	<path fill="#2563EB" fill-rule="evenodd" d="M163 9h32v30h-32z" clip-rule="evenodd" opacity="0"/>
	<circle cx="179" cy="24" r="14" fill="#2563EB"/>
	<circle cx="179" cy="24" r="10" fill="none" stroke="#FFFFFF" stroke-width="2.6"/>
	<path d="M179 11l3.9 9.4L192 24l-9.1 3.6L179 37l-3.9-9.4L166 24l9.1-3.6L179 11Z" fill="#FFFFFF"/>
	<circle cx="179" cy="24" r="2.2" fill="#0F172A"/>
</svg>